<?xml version="1.0" encoding="UTF-8" standalone="yes"?>
<svg version="1.2" width="120" height="120" baseProfile="tiny-ps" xmlns="http://www.w3.org/2000/svg">
  <title>bimi-svg-tiny-12-ps</title>
  <path d="M0 0 C1.80411095 -0.01216805 1.80411095 -0.01216805 3.64466858 -0.02458191 C6.17513467 -0.03300493 8.70569219 -0.02626869 11.23608398 -0.00512695 C15.08431265 0.01944604 18.92750568 -0.02528628 22.77539062 -0.07617188 C25.24609793 -0.07580134 27.71680862 -0.07137827 30.1875 -0.0625 C31.89268044 -0.08846001 31.89268044 -0.08846001 33.63230896 -0.11494446 C42.22690015 0.03385329 47.37519843 2.70203372 54.16015625 7.83203125 C55.51351715 8.77069407 56.86757788 9.70834953 58.22265625 10.64453125 C60.80668601 12.56880873 62.89195418 14.56382918 65.16015625 16.83203125 C66.15015625 17.49203125 67.14015625 18.15203125 68.16015625 18.83203125 C68.65515625 20.31703125 68.65515625 20.31703125 69.16015625 21.83203125 C69.61390625 22.28578125 70.06765625 22.73953125 70.53515625 23.20703125 C73.28769326 25.95956826 74.98996706 28.61621081 75.53437805 32.50544739 C75.53374863 33.46504868 75.5331192 34.42464996 75.5324707 35.41333008 C75.54181389 37.05577446 75.54181389 37.05577446 75.55134583 38.73139954 C75.54213608 39.90542831 75.53292633 41.07945709 75.5234375 42.2890625 C75.52418526 44.11445808 75.52418526 44.11445808 75.52494812 45.97673035 C75.52260923 48.54968906 75.51289166 51.12265012 75.49633789 53.69555664 C75.47280628 57.61951347 75.47577143 61.54278767 75.48242188 65.46679688 C75.47684272 67.97005611 75.46973135 70.47331249 75.4609375 72.9765625 C75.46184891 74.14451859 75.46276031 75.31247467 75.46369934 76.51582336 C75.33536729 91.38491883 75.33536729 91.38491883 71.16015625 96.08203125 C70.50015625 96.65953125 69.84015625 97.23703125 69.16015625 97.83203125 C68.80953125 98.55390625 68.45890625 99.27578125 68.09765625 100.01953125 C67.16015625 101.83203125 67.16015625 101.83203125 64.16015625 102.83203125 C63.66515625 104.31703125 63.66515625 104.31703125 63.16015625 105.83203125 C61.85378808 106.55010117 60.5141476 107.208389 59.16015625 107.83203125 C57.57092269 108.94048827 56.00892587 110.08876204 54.47265625 111.26953125 C53.29123047 112.16478516 53.29123047 112.16478516 52.0859375 113.078125 C49.907779 114.77506475 49.907779 114.77506475 49.16015625 117.83203125 C48.27328125 117.95578125 47.38640625 118.07953125 46.47265625 118.20703125 C43.25190038 118.68978754 43.25190038 118.68978754 40.78120422 119.85690308 C37.95791808 120.90727144 35.91113307 121.07397158 32.91088867 121.05908203 C31.89020798 121.05893097 30.86952728 121.05877991 29.81791687 121.05862427 C28.72816055 121.0483017 27.63840424 121.03797913 26.515625 121.02734375 C25.39070145 121.02451385 24.26577789 121.02168396 23.10676575 121.01876831 C19.52028689 121.00758961 15.9340594 120.98248888 12.34765625 120.95703125 C9.91341507 120.94699848 7.47916997 120.93787315 5.04492188 120.9296875 C-0.91675217 120.90765781 -6.87828 120.87420299 -12.83984375 120.83203125 C-12.83984375 120.17203125 -12.83984375 119.51203125 -12.83984375 118.83203125 C-14.12635081 118.13492394 -15.4192504 117.44960249 -16.71484375 116.76953125 C-17.43414063 116.38667969 -18.1534375 116.00382812 -18.89453125 115.609375 C-19.53648438 115.35285156 -20.1784375 115.09632812 -20.83984375 114.83203125 C-21.82984375 115.32703125 -21.82984375 115.32703125 -22.83984375 115.83203125 C-22.92878906 115.24421875 -23.01773437 114.65640625 -23.109375 114.05078125 C-24.03103787 111.25129191 -25.28057511 110.21503735 -27.52734375 108.33203125 C-28.2440625 107.72875 -28.96078125 107.12546875 -29.69921875 106.50390625 C-31.51490403 105.08581629 -33.33142922 103.81003556 -35.27734375 102.58203125 C-37.83984375 100.83203125 -37.83984375 100.83203125 -38.83984375 97.83203125 C-39.47921875 97.27515625 -40.11859375 96.71828125 -40.77734375 96.14453125 C-46.01591224 90.27098476 -45.13347062 81.36512857 -45.10546875 73.95703125 C-45.1073822 72.83312988 -45.10929565 71.70922852 -45.11126709 70.55126953 C-45.11262282 68.18456802 -45.1089693 65.81785892 -45.10058594 63.45117188 C-45.08987803 59.8435789 -45.10050236 56.23648387 -45.11328125 52.62890625 C-45.11195955 50.32161349 -45.10939693 48.01432104 -45.10546875 45.70703125 C-45.10951721 44.63598145 -45.11356567 43.56493164 -45.11773682 42.46142578 C-45.03014917 28.36457189 -45.03014917 28.36457189 -40.83984375 23.51953125 C-40.17984375 22.96265625 -39.51984375 22.40578125 -38.83984375 21.83203125 C-38.17984375 20.84203125 -37.51984375 19.85203125 -36.83984375 18.83203125 C-34.21624847 16.01736181 -31.24500501 13.65859104 -28.265625 11.234375 C-27.79511719 10.77160156 -27.32460938 10.30882812 -26.83984375 9.83203125 C-26.83984375 9.17203125 -26.83984375 8.51203125 -26.83984375 7.83203125 C-26.27157364 7.72912277 -25.70330353 7.62621429 -25.11781311 7.52018738 C-22.44131018 6.71163748 -20.67751394 5.42612483 -18.39233398 3.8215332 C-12.30942538 0.10428119 -6.99968606 -0.05536957 0 0 Z " fill="#3E65EC" transform="translate(44.83984375,-0.83203125)"/>
  <path d="M0 0 C0.495 1.485 0.495 1.485 1 3 C3.01508358 3.73323796 3.01508358 3.73323796 5 4 C5 4.66 5 5.32 5 6 C5.66 6 6.32 6 7 6 C8.33333333 7.33333333 9.66666667 8.66666667 11 10 C12.24145334 10.90764033 13.49245612 11.80228774 14.75 12.6875 C22.53790102 18.47404098 28.69190767 25.79141607 32 35 C32 36.32 32 37.64 32 39 C31.34 39 30.68 39 30 39 C30 38.01 30 37.02 30 36 C26.535 36.495 26.535 36.495 23 37 C23 38.65 23 40.3 23 42 C20 43 20 43 17.0625 41.6875 C16.051875 41.130625 15.04125 40.57375 14 40 C12.88625 39.62875 12.88625 39.62875 11.75 39.25 C8.92510964 37.23222117 8.82710061 34.24932384 8 31 C7.34 30.67 6.68 30.34 6 30 C6 41.22 6 52.44 6 64 C2.37 64 -1.26 64 -5 64 C-5 59.38 -5 54.76 -5 50 C-8.63 50 -12.26 50 -16 50 C-16 54.62 -16 59.24 -16 64 C-18.97 64 -21.94 64 -25 64 C-24.94779297 65.30324219 -24.94779297 65.30324219 -24.89453125 66.6328125 C-24.60774411 78.84175084 -24.60774411 78.84175084 -28 83 C-32.76960932 85.75169768 -36.54168431 86.33418259 -42 86 C-42 82.7 -42 79.4 -42 76 C-40.02 75.505 -40.02 75.505 -38 75 C-37.67 63.45 -37.34 51.9 -37 40 C-41.19949182 44.30447932 -41.19949182 44.30447932 -41.25 47.8125 C-41.1675 48.534375 -41.085 49.25625 -41 50 C-44 51 -47 52 -50 53 C-50.33 53.99 -50.66 54.98 -51 56 C-51.99 56.66 -52.98 57.32 -54 58 C-54.72965366 60.56282742 -54.72965366 60.56282742 -55 63 C-57.475 63.495 -57.475 63.495 -60 64 C-60 64.66 -60 65.32 -60 66 C-66.37439614 66.49033816 -66.37439614 66.49033816 -69.3125 64.1875 C-74.12405839 57.95029468 -73.59502901 52.68901122 -73 45 C-70.52190667 29.91523052 -62.31743233 16.9969197 -50 8 C-46.45135505 5.677725 -42.85860919 3.75585398 -39 2 C-38.09894531 1.58621094 -37.19789062 1.17242187 -36.26953125 0.74609375 C-25.38058044 -3.56442885 -11.11494789 -3.83970927 0 0 Z " fill="#5186F9" transform="translate(77,5)"/>
  <path d="M0 0 C3.3 0 6.6 0 10 0 C10 4.29 10 8.58 10 13 C13.63 13 17.26 13 21 13 C21 8.71 21 4.42 21 0 C24.63 0 28.26 0 32 0 C32 11.55 32 23.1 32 35 C28.37 35 24.74 35 21 35 C21 30.38 21 25.76 21 21 C17.37 21 13.74 21 10 21 C10 25.62 10 30.24 10 35 C7.03 35 4.06 35 1 35 C1.05220703 36.30324219 1.05220703 36.30324219 1.10546875 37.6328125 C1.39225589 49.84175084 1.39225589 49.84175084 -2 54 C-6.76960932 56.75169768 -10.54168431 57.33418259 -16 57 C-16 53.7 -16 50.4 -16 47 C-14.02 46.505 -14.02 46.505 -12 46 C-11.67 35.44 -11.34 24.88 -11 14 C-7.37 14 -3.74 14 0 14 C-0.33 12.68 -0.66 11.36 -1 10 C-1.33 10.33 -1.66 10.66 -2 11 C-5.4375 11.1875 -5.4375 11.1875 -9 11 C-11 9 -11 9 -11.25 6 C-11 3 -11 3 -9 1 C-5.4375 0.8125 -5.4375 0.8125 -2 1 C-1.67 1.33 -1.34 1.66 -1 2 C-0.67 1.34 -0.34 0.68 0 0 Z " fill="#EDF4FC" transform="translate(51,34)"/>
  <path d="M0 0 C0.66 0.33 1.32 0.66 2 1 C0.68 1.33 -0.64 1.66 -2 2 C-1.34 1.34 -0.68 0.68 0 0 Z " fill="#4D61D4" transform="translate(90,117)"/>
  <path d="M0 0 C2 1 2 1 2 1 Z " fill="#4E61D3" transform="translate(86,119)"/>
  <path d="M0 0 C2 1 2 1 2 1 Z " fill="#416BDD" transform="translate(30,118)"/>
  <path d="M0 0 C2 1 2 1 2 1 Z " fill="#426CDD" transform="translate(28,117)"/>
  <path d="M0 0 C2 1 2 1 2 1 Z " fill="#4E5FD4" transform="translate(99,111)"/>
  <path d="M0 0 C2 1 2 1 2 1 Z " fill="#3E6FDD" transform="translate(19,111)"/>
  <path d="M0 0 C2 1 2 1 2 1 Z " fill="#5781ED" transform="translate(5,102)"/>
  <path d="" fill="#5468D5" transform="translate(0,0)"/>
  <path d="" fill="#518AE6" transform="translate(0,0)"/>
  <path d="" fill="#6194F7" transform="translate(0,0)"/>
  <path d="" fill="#6193F2" transform="translate(0,0)"/>
  <path d="M0 0 C2 1 2 1 2 1 Z " fill="#6092F3" transform="translate(3,18)"/>
  <path d="M0 0 C2 1 2 1 2 1 Z " fill="#4376DD" transform="translate(100,7)"/>
  <path d="M0 0 C2 1 2 1 2 1 Z " fill="#4579DD" transform="translate(96,4)"/>
  <path d="M0 0 C2 1 2 1 2 1 Z " fill="#568CE4" transform="translate(23,3)"/>
  <path d="M0 0 C2 1 2 1 2 1 Z " fill="#4579DD" transform="translate(93,2)"/>
  <path d="M0 0 C2 1 2 1 2 1 Z " fill="#467BE0" transform="translate(90,0)"/>
  <path d="M0 0 C2 1 2 1 2 1 Z " fill="#538CE4" transform="translate(28,0)"/>
  <path d="" fill="#4D5ED7" transform="translate(0,0)"/>
  <path d="" fill="#4E77EF" transform="translate(0,0)"/>
  <path d="" fill="#4D79F3" transform="translate(0,0)"/>
  <path d="" fill="#416CDB" transform="translate(0,0)"/>
  <path d="" fill="#426DDD" transform="translate(0,0)"/>
  <path d="" fill="#4D5ED4" transform="translate(0,0)"/>
  <path d="" fill="#416FDE" transform="translate(0,0)"/>
  <path d="" fill="#4F5FD3" transform="translate(0,0)"/>
  <path d="" fill="#4E5ED4" transform="translate(0,0)"/>
  <path d="" fill="#4070DD" transform="translate(0,0)"/>
  <path d="" fill="#4E7DF6" transform="translate(0,0)"/>
  <path d="" fill="#4A5BD6" transform="translate(0,0)"/>
  <path d="" fill="#4F5FD4" transform="translate(0,0)"/>
  <path d="" fill="#4071DF" transform="translate(0,0)"/>
  <path d="" fill="#4E75DF" transform="translate(0,0)"/>
  <path d="" fill="#5060D5" transform="translate(0,0)"/>
  <path d="" fill="#4072E0" transform="translate(0,0)"/>
  <path d="" fill="#5060D4" transform="translate(0,0)"/>
  <path d="" fill="#3F72DF" transform="translate(0,0)"/>
  <path d="" fill="#505FD4" transform="translate(0,0)"/>
  <path d="" fill="#3E72DE" transform="translate(0,0)"/>
  <path d="" fill="#5564D0" transform="translate(0,0)"/>
  <path d="" fill="#505FD4" transform="translate(0,0)"/>
  <path d="" fill="#3D72DF" transform="translate(0,0)"/>
  <path d="" fill="#5160D4" transform="translate(0,0)"/>
  <path d="" fill="#3E73DF" transform="translate(0,0)"/>
  <path d="" fill="#3F74E0" transform="translate(0,0)"/>
  <path d="" fill="#4C7CE6" transform="translate(0,0)"/>
  <path d="" fill="#4176E1" transform="translate(0,0)"/>
  <path d="" fill="#5160D5" transform="translate(0,0)"/>
  <path d="" fill="#4378E2" transform="translate(0,0)"/>
  <path d="" fill="#5161D5" transform="translate(0,0)"/>
  <path d="" fill="#596ADB" transform="translate(0,0)"/>
  <path d="" fill="#4F61D3" transform="translate(0,0)"/>
  <path d="" fill="#4379E0" transform="translate(0,0)"/>
  <path d="" fill="#5983ED" transform="translate(0,0)"/>
  <path d="" fill="#487DE3" transform="translate(0,0)"/>
  <path d="" fill="#557FF4" transform="translate(0,0)"/>
  <path d="" fill="#4573DC" transform="translate(0,0)"/>
  <path d="" fill="#578EE5" transform="translate(0,0)"/>
  <path d="" fill="#578EE6" transform="translate(0,0)"/>
  <path d="" fill="#4274DE" transform="translate(0,0)"/>
  <path d="" fill="#4274DE" transform="translate(0,0)"/>
  <path d="" fill="#528AE1" transform="translate(0,0)"/>
  <path d="" fill="#518AE0" transform="translate(0,0)"/>
  <path d="" fill="#528BE0" transform="translate(0,0)"/>
  <path d="" fill="#4275DD" transform="translate(0,0)"/>
  <path d="" fill="#538BE0" transform="translate(0,0)"/>
  <path d="" fill="#5E92F6" transform="translate(0,0)"/>
  <path d="" fill="#4377DF" transform="translate(0,0)"/>
  <path d="" fill="#538BE0" transform="translate(0,0)"/>
  <path d="" fill="#4578E0" transform="translate(0,0)"/>
  <path d="" fill="#558CE2" transform="translate(0,0)"/>
  <path d="" fill="#477ADF" transform="translate(0,0)"/>
  <path d="" fill="#578FE7" transform="translate(0,0)"/>
  <path d="" fill="#5988E4" transform="translate(0,0)"/>
  <path d="" fill="#4277DD" transform="translate(0,0)"/>
  <path d="" fill="#528AE1" transform="translate(0,0)"/>
  <path d="" fill="#4F7DE2" transform="translate(0,0)"/>
  <path d="" fill="#4578DD" transform="translate(0,0)"/>
  <path d="" fill="#568EE3" transform="translate(0,0)"/>
  <path d="" fill="#588EE4" transform="translate(0,0)"/>
  <path d="" fill="#4478DE" transform="translate(0,0)"/>
  <path d="" fill="#548AE3" transform="translate(0,0)"/>
  <path d="" fill="#6194F7" transform="translate(0,0)"/>
  <path d="" fill="#5E91F2" transform="translate(0,0)"/>
  <path d="" fill="#4B7EE1" transform="translate(0,0)"/>
  <path d="" fill="#598FE6" transform="translate(0,0)"/>
  <path d="" fill="#6094F6" transform="translate(0,0)"/>
</svg>